<svg width="200" height="200" viewBox="0 0 200 200" fill="none" xmlns="http://www.w3.org/2000/svg">
<g clip-path="url(#clip0_46_558)">
<path d="M192.96 101.27C192.96 88.9678 190.537 76.7861 185.829 65.4203C181.121 54.0545 174.221 43.7273 165.522 35.0283C156.823 26.3293 146.496 19.4289 135.13 14.7211C123.764 10.0132 111.582 7.59009 99.28 7.59009C74.4345 7.59009 50.6066 17.4599 33.0382 35.0283C15.4698 52.5967 5.59998 76.4246 5.59998 101.27C5.59998 126.116 15.4698 149.943 33.0382 167.512C50.6066 185.08 74.4345 194.95 99.28 194.95C111.582 194.95 123.764 192.527 135.13 187.819C146.496 183.111 156.823 176.211 165.522 167.512C174.221 158.813 181.121 148.486 185.829 137.12C190.537 125.754 192.96 113.572 192.96 101.27Z" stroke="#999971" stroke-width="2"/>
<path d="M187.62 101.26C187.62 77.8309 178.313 55.3613 161.746 38.7944C145.179 22.2274 122.709 12.9202 99.2799 12.9202C75.8507 12.9202 53.3811 22.2274 36.8141 38.7944C20.2472 55.3613 10.9399 77.8309 10.9399 101.26C10.9399 124.689 20.2472 147.159 36.8141 163.726C53.3811 180.293 75.8507 189.6 99.2799 189.6C122.709 189.6 145.179 180.293 161.746 163.726C178.313 147.159 187.62 124.689 187.62 101.26Z" stroke="#999971" stroke-width="2"/>
<path d="M157.2 95.4401C157.051 95.3963 156.915 95.3161 156.804 95.2068C156.694 95.0975 156.612 94.9625 156.566 94.8139C156.521 94.6652 156.513 94.5076 156.543 94.3551C156.573 94.2026 156.641 94.06 156.74 93.9401C158.013 92.3801 158.577 90.7934 158.43 89.1801C158.397 88.7934 158.23 88.4801 157.93 88.2401L156.04 86.6801C155.89 86.5582 155.767 86.4072 155.677 86.2361C155.587 86.065 155.532 85.8773 155.517 85.6842C155.501 85.4911 155.524 85.2964 155.585 85.1119C155.645 84.9274 155.742 84.7568 155.87 84.6101L160.24 79.5701C161.907 77.6501 161.743 75.9001 159.75 74.3201C152.17 68.3301 145.1 64.2301 141.56 54.4401C134.81 35.7801 111.2 24.4701 92.27 25.0701C92.1608 25.0767 92.0577 25.1229 91.98 25.2001C89.5467 27.6868 87.2367 30.1001 85.05 32.4401C85.0463 32.4443 85.0438 32.4494 85.0428 32.4549C85.0418 32.4604 85.0424 32.4661 85.0445 32.4713C85.0465 32.4765 85.05 32.4811 85.0546 32.4844C85.0591 32.4877 85.0644 32.4897 85.07 32.4901C90.9434 31.8968 96.7167 32.2301 102.39 33.4901C107.54 34.6401 110.3 37.9901 112.64 42.3501C112.913 42.8568 112.763 43.0634 112.19 42.9701C109.323 42.5234 106.443 42.1868 103.55 41.9601C102.56 41.8801 101.79 41.4001 101.03 40.7601C100.717 40.5001 100.357 40.3768 99.95 40.3901C94.74 40.5401 98.06 48.6701 102.06 44.5101C102.36 44.1901 102.73 44.0601 103.17 44.1201L113.36 45.3701C113.973 45.4434 114.39 45.7668 114.61 46.3401C116.11 50.1801 117.31 54.1601 118.21 58.2801C118.244 58.446 118.241 58.6179 118.202 58.7837C118.162 58.9496 118.086 59.1053 117.98 59.2401C117.27 60.1201 116.47 60.7401 116.3 61.9401C115.98 64.1301 117.15 65.4201 119.06 66.3501C119.407 66.5168 119.603 66.7968 119.65 67.1901C120.397 73.8101 120.783 80.4334 120.81 87.0601C120.813 87.2413 120.771 87.4209 120.688 87.5831C120.604 87.7453 120.481 87.8851 120.33 87.9901L114.09 92.3301C113.663 92.6301 113.277 92.5834 112.93 92.1901C110.28 89.1501 105.85 90.4301 104.11 93.7301C103.61 94.6801 103.87 95.6601 103.56 96.6301C103.453 96.9834 103.223 97.2168 102.87 97.3301C93.9434 100.23 85.0434 101.74 76.17 101.86C75.969 101.863 75.7735 101.796 75.6168 101.672C75.46 101.548 75.3516 101.374 75.31 101.18C73.72 93.9701 63.33 94.1001 61.96 101.23C61.3 104.617 62.5267 107.163 65.64 108.87C67.06 109.65 68.67 109.55 70.24 109.45C70.62 109.423 70.95 109.54 71.23 109.8C82.26 119.95 96.48 126.37 111.43 127.09C111.723 127.103 111.8 127.24 111.66 127.5C103.6 142.72 100.043 158.53 100.99 174.93C101.123 177.243 101.497 177.283 102.11 175.05C106.44 159.35 115.84 138.28 129.58 129.16C137.48 123.92 146.157 120.513 155.61 118.94C159.41 118.31 162.18 115.77 162 111.71C161.88 108.76 159.71 106.15 158.34 103.63C158.277 103.513 158.238 103.384 158.226 103.25C158.214 103.116 158.229 102.98 158.27 102.85C159.06 100.45 161.3 96.6201 157.2 95.4401Z" stroke="#999971" stroke-width="2"/>
<path d="M44.79 78.89C52.98 77.58 55.23 66.81 47.44 63.08C47.0133 62.8734 46.8833 62.5467 47.05 62.1C49.27 56.1734 52.4367 50.96 56.55 46.46C57.0033 45.9667 56.97 45.5067 56.45 45.08L56.03 44.73C55.6833 44.4434 55.36 44.4634 55.06 44.79C50.6867 49.47 47.28 55.11 44.84 61.71C44.6933 62.11 44.4067 62.3034 43.98 62.29C34.46 62.06 32.32 74.9 41.19 78.46C41.5367 78.6 41.7233 78.8567 41.75 79.23C43.1833 99.5834 52.9933 114.07 71.18 122.69C72.84 123.48 72.83 125.15 74.53 125.86C78.83 127.65 82.26 121.92 78.69 119.12C76.4433 117.36 74.41 117.683 72.59 120.09C72.5002 120.208 72.3745 120.293 72.2319 120.333C72.0893 120.372 71.9377 120.364 71.8 120.31C56.16 114.11 44.15 96.5 44.22 79.55C44.2206 79.3915 44.2782 79.2383 44.3826 79.1174C44.4869 78.9966 44.6313 78.916 44.79 78.89Z" stroke="#999971" stroke-width="2"/>
<path d="M91.36 67.6301C91.36 65.1636 90.3802 62.7981 88.6361 61.054C86.892 59.3099 84.5265 58.3301 82.06 58.3301C79.5935 58.3301 77.228 59.3099 75.4839 61.054C73.7398 62.7981 72.76 65.1636 72.76 67.6301C72.76 68.8514 73.0006 70.0607 73.4679 71.189C73.9353 72.3174 74.6203 73.3426 75.4839 74.2062C76.3475 75.0698 77.3727 75.7548 78.5011 76.2222C79.6294 76.6895 80.8387 76.9301 82.06 76.9301C83.2813 76.9301 84.4906 76.6895 85.619 76.2222C86.7473 75.7548 87.7725 75.0698 88.6361 74.2062C89.4997 73.3426 90.1847 72.3174 90.6521 71.189C91.1195 70.0607 91.36 68.8514 91.36 67.6301Z" stroke="#999971" stroke-width="2"/>
<path d="M123.58 45.4401C123.691 45.4628 123.807 45.447 123.908 45.3952C124.009 45.3434 124.09 45.2588 124.136 45.1552C124.183 45.0516 124.193 44.9352 124.164 44.8252C124.136 44.7152 124.071 44.6182 123.98 44.5501L113.17 37.0801C113.076 37.0162 112.963 36.9864 112.849 36.9955C112.736 37.0046 112.629 37.0522 112.546 37.1302C112.463 37.2083 112.41 37.3123 112.394 37.425C112.378 37.5377 112.402 37.6524 112.46 37.7501L115.84 43.4101C115.874 43.467 115.919 43.5167 115.972 43.5562C116.025 43.5957 116.086 43.6242 116.15 43.6401L123.58 45.4401Z" stroke="#999971" stroke-width="2"/>
<path d="M121.28 58.67C124.91 59.71 125.5 63.95 122.36 66.07C122.033 66.29 121.89 66.5967 121.93 66.99C122.61 72.8034 122.98 78.6834 123.04 84.63C123.041 84.7083 123.065 84.7846 123.109 84.8493C123.153 84.9141 123.215 84.9645 123.288 84.9943C123.36 85.0241 123.44 85.032 123.516 85.017C123.593 85.002 123.664 84.9648 123.72 84.91C128.42 80.3167 132.407 75.0734 135.68 69.18C136.12 68.38 136.237 67.51 136.03 66.57C134.61 60.25 132.053 54.7067 128.36 49.94C127.88 49.32 127.26 48.8967 126.5 48.67C123.567 47.7834 120.647 46.9934 117.74 46.3C117.691 46.2897 117.641 46.2921 117.593 46.3069C117.546 46.3217 117.503 46.3484 117.469 46.3846C117.435 46.4207 117.411 46.4651 117.398 46.5133C117.386 46.5615 117.387 46.6121 117.4 46.66L120.57 57.95C120.619 58.1212 120.71 58.277 120.834 58.4029C120.958 58.5287 121.112 58.6206 121.28 58.67Z" stroke="#999971" stroke-width="2"/>
<path d="M122.86 111.62C131.44 100.09 137.78 87.4802 136.96 72.9202C136.907 72.0802 136.667 72.0202 136.24 72.7402C132.727 78.6135 128.557 83.6968 123.73 87.9902C123.56 88.1417 123.423 88.3275 123.328 88.5358C123.234 88.7441 123.183 88.9703 123.18 89.2002C123.147 96.8935 122.813 104.28 122.18 111.36C122.1 112.253 122.327 112.34 122.86 111.62Z" stroke="#999971" stroke-width="2"/>
<path d="M114.6 94.9602C115.19 100.77 108.96 104.02 105.01 99.5102C104.895 99.3777 104.743 99.2829 104.574 99.2383C104.404 99.1937 104.225 99.2013 104.06 99.2602C95.1199 102.46 85.7833 104.114 76.05 104.22C75.65 104.22 75.3733 104.407 75.2199 104.78C74.7599 105.92 74.1366 106.914 73.3499 107.76C73.0499 108.08 73.0633 108.387 73.3899 108.68C84.7899 118.767 97.7733 124.197 112.34 124.97C112.63 124.986 112.92 124.926 113.181 124.796C113.442 124.667 113.665 124.472 113.83 124.23C115.337 122.01 116.857 119.92 118.39 117.96C119.083 117.074 119.483 116.114 119.59 115.08C120.343 107.694 120.747 99.6035 120.8 90.8102C120.799 90.784 120.791 90.7585 120.777 90.7364C120.762 90.7142 120.743 90.6962 120.719 90.684C120.696 90.6719 120.67 90.666 120.644 90.6671C120.618 90.6682 120.592 90.6762 120.57 90.6902L114.82 94.5002C114.653 94.6069 114.58 94.7602 114.6 94.9602Z" stroke="#999971" stroke-width="2"/>
<path d="M0 0H200V200H0V0ZM192.96 101.27C192.96 88.9678 190.537 76.786 185.829 65.4202C181.121 54.0544 174.221 43.7272 165.522 35.0282C156.823 26.3292 146.496 19.4288 135.13 14.721C123.764 10.0131 111.582 7.59 99.28 7.59C74.4345 7.59 50.6066 17.4598 33.0382 35.0282C15.4698 52.5966 5.6 76.4245 5.6 101.27C5.6 126.115 15.4698 149.943 33.0382 167.512C50.6066 185.08 74.4345 194.95 99.28 194.95C111.582 194.95 123.764 192.527 135.13 187.819C146.496 183.111 156.823 176.211 165.522 167.512C174.221 158.813 181.121 148.486 185.829 137.12C190.537 125.754 192.96 113.572 192.96 101.27Z" fill="#324154"/>
<path d="M192.96 101.27C192.96 113.572 190.537 125.754 185.829 137.12C181.121 148.486 174.221 158.813 165.522 167.512C156.823 176.211 146.496 183.111 135.13 187.819C123.764 192.527 111.582 194.95 99.28 194.95C74.4345 194.95 50.6066 185.08 33.0382 167.512C15.4698 149.943 5.59998 126.116 5.59998 101.27C5.59998 76.4246 15.4698 52.5967 33.0382 35.0283C50.6066 17.4599 74.4345 7.59009 99.28 7.59009C111.582 7.59009 123.764 10.0132 135.13 14.7211C146.496 19.4289 156.823 26.3293 165.522 35.0283C174.221 43.7273 181.121 54.0545 185.829 65.4203C190.537 76.7861 192.96 88.9678 192.96 101.27ZM187.62 101.26C187.62 77.8309 178.313 55.3612 161.746 38.7943C145.179 22.2273 122.709 12.9201 99.28 12.9201C75.8508 12.9201 53.3811 22.2273 36.8142 38.7943C20.2472 55.3612 10.94 77.8309 10.94 101.26C10.94 124.689 20.2472 147.159 36.8142 163.726C53.3811 180.293 75.8508 189.6 99.28 189.6C122.709 189.6 145.179 180.293 161.746 163.726C178.313 147.159 187.62 124.689 187.62 101.26Z" fill="#FFF08D"/>
<path d="M187.62 101.26C187.62 124.689 178.313 147.159 161.746 163.726C145.179 180.293 122.709 189.6 99.2799 189.6C75.8507 189.6 53.3811 180.293 36.8141 163.726C20.2472 147.159 10.9399 124.689 10.9399 101.26C10.9399 77.8307 20.2472 55.3611 36.8141 38.7941C53.3811 22.2271 75.8507 12.9199 99.2799 12.9199C122.709 12.9199 145.179 22.2271 161.746 38.7941C178.313 55.3611 187.62 77.8307 187.62 101.26ZM157.2 95.4399C157.051 95.3961 156.915 95.3159 156.804 95.2066C156.694 95.0973 156.612 94.9623 156.566 94.8137C156.521 94.665 156.513 94.5074 156.543 94.3549C156.573 94.2024 156.641 94.0599 156.74 93.9399C158.013 92.3799 158.577 90.7933 158.43 89.1799C158.397 88.7933 158.23 88.4799 157.93 88.2399L156.04 86.6799C155.89 86.558 155.767 86.407 155.677 86.2359C155.587 86.0648 155.532 85.8771 155.516 85.684C155.501 85.4909 155.524 85.2963 155.584 85.1117C155.645 84.9272 155.742 84.7566 155.87 84.6099L160.24 79.5699C161.907 77.6499 161.743 75.8999 159.75 74.3199C152.17 68.3299 145.1 64.2299 141.56 54.4399C134.81 35.7799 111.2 24.4699 92.2699 25.0699C92.1607 25.0765 92.0576 25.1228 91.9799 25.1999C89.5466 27.6866 87.2366 30.0999 85.0499 32.4399C85.0462 32.4441 85.0437 32.4492 85.0427 32.4547C85.0417 32.4603 85.0423 32.4659 85.0444 32.4712C85.0464 32.4764 85.0499 32.4809 85.0545 32.4842C85.059 32.4875 85.0643 32.4895 85.0699 32.4899C90.9433 31.8966 96.7166 32.2299 102.39 33.4899C107.54 34.6399 110.3 37.9899 112.64 42.3499C112.913 42.8566 112.763 43.0633 112.19 42.9699C109.323 42.5233 106.443 42.1866 103.55 41.9599C102.56 41.8799 101.79 41.3999 101.03 40.7599C100.717 40.4999 100.357 40.3766 99.9499 40.3899C94.7399 40.5399 98.0599 48.6699 102.06 44.5099C102.36 44.1899 102.73 44.0599 103.17 44.1199L113.36 45.3699C113.973 45.4433 114.39 45.7666 114.61 46.3399C116.11 50.1799 117.31 54.1599 118.21 58.2799C118.244 58.4458 118.241 58.6177 118.202 58.7835C118.162 58.9494 118.086 59.1051 117.98 59.2399C117.27 60.1199 116.47 60.7399 116.3 61.9399C115.98 64.1299 117.15 65.4199 119.06 66.3499C119.407 66.5166 119.603 66.7966 119.65 67.1899C120.397 73.8099 120.783 80.4333 120.81 87.0599C120.813 87.2411 120.771 87.4207 120.687 87.5829C120.604 87.7452 120.481 87.8849 120.33 87.9899L114.09 92.3299C113.663 92.6299 113.277 92.5833 112.93 92.1899C110.28 89.1499 105.85 90.4299 104.11 93.7299C103.61 94.6799 103.87 95.6599 103.56 96.6299C103.453 96.9833 103.223 97.2166 102.87 97.3299C93.9433 100.23 85.0433 101.74 76.1699 101.86C75.9689 101.862 75.7734 101.796 75.6167 101.672C75.4599 101.548 75.3515 101.374 75.3099 101.18C73.7199 93.9699 63.3299 94.0999 61.9599 101.23C61.2999 104.617 62.5266 107.163 65.6399 108.87C67.0599 109.65 68.6699 109.55 70.2399 109.45C70.6199 109.423 70.9499 109.54 71.2299 109.8C82.2599 119.95 96.4799 126.37 111.43 127.09C111.723 127.103 111.8 127.24 111.66 127.5C103.6 142.72 100.043 158.53 100.99 174.93C101.123 177.243 101.497 177.283 102.11 175.05C106.44 159.35 115.84 138.28 129.58 129.16C137.48 123.92 146.157 120.513 155.61 118.94C159.41 118.31 162.18 115.77 162 111.71C161.88 108.76 159.71 106.15 158.34 103.63C158.277 103.513 158.238 103.383 158.226 103.249C158.214 103.115 158.229 102.98 158.27 102.85C159.06 100.45 161.3 96.6199 157.2 95.4399ZM44.7899 78.8899C52.9799 77.5799 55.2299 66.8099 47.4399 63.0799C47.0133 62.8733 46.8833 62.5466 47.0499 62.0999C49.2699 56.1733 52.4366 50.9599 56.5499 46.4599C57.0033 45.9666 56.9699 45.5066 56.4499 45.0799L56.0299 44.7299C55.6833 44.4433 55.3599 44.4633 55.0599 44.7899C50.6866 49.4699 47.2799 55.1099 44.8399 61.7099C44.6933 62.1099 44.4066 62.3033 43.9799 62.2899C34.4599 62.0599 32.3199 74.8999 41.1899 78.4599C41.5366 78.5999 41.7233 78.8566 41.7499 79.2299C43.1833 99.5833 52.9933 114.07 71.1799 122.69C72.8399 123.48 72.8299 125.15 74.5299 125.86C78.8299 127.65 82.2599 121.92 78.6899 119.12C76.4433 117.36 74.4099 117.683 72.5899 120.09C72.5001 120.208 72.3744 120.293 72.2318 120.332C72.0893 120.372 71.9376 120.364 71.7999 120.31C56.1599 114.11 44.1499 96.4999 44.2199 79.5499C44.2206 79.3914 44.2782 79.2382 44.3825 79.1173C44.4869 78.9965 44.6312 78.9159 44.7899 78.8899ZM91.3599 67.6299C91.3599 65.1634 90.3801 62.7979 88.636 61.0538C86.8919 59.3097 84.5264 58.3299 82.0599 58.3299C79.5934 58.3299 77.2279 59.3097 75.4838 61.0538C73.7398 62.7979 72.7599 65.1634 72.7599 67.6299C72.7599 68.8512 73.0005 70.0606 73.4679 71.1889C73.9352 72.3172 74.6203 73.3424 75.4838 74.206C76.3474 75.0696 77.3727 75.7546 78.501 76.222C79.6293 76.6894 80.8386 76.9299 82.0599 76.9299C83.2812 76.9299 84.4906 76.6894 85.6189 76.222C86.7472 75.7546 87.7724 75.0696 88.636 74.206C89.4996 73.3424 90.1846 72.3172 90.652 71.1889C91.1194 70.0606 91.3599 68.8512 91.3599 67.6299Z" fill="#324154"/>
<path d="M157.2 95.4401C161.3 96.6201 159.06 100.45 158.27 102.85C158.229 102.98 158.214 103.116 158.226 103.25C158.238 103.384 158.277 103.513 158.34 103.63C159.71 106.15 161.88 108.76 162 111.71C162.18 115.77 159.41 118.31 155.61 118.94C146.157 120.513 137.48 123.92 129.58 129.16C115.84 138.28 106.44 159.35 102.11 175.05C101.497 177.283 101.123 177.243 100.99 174.93C100.043 158.53 103.6 142.72 111.66 127.5C111.8 127.24 111.723 127.103 111.43 127.09C96.48 126.37 82.26 119.95 71.23 109.8C70.95 109.54 70.62 109.423 70.24 109.45C68.67 109.55 67.06 109.65 65.64 108.87C62.5267 107.163 61.3 104.617 61.96 101.23C63.33 94.1001 73.72 93.9701 75.31 101.18C75.3516 101.374 75.46 101.548 75.6168 101.672C75.7735 101.796 75.969 101.863 76.17 101.86C85.0434 101.74 93.9434 100.23 102.87 97.3301C103.223 97.2168 103.453 96.9834 103.56 96.6301C103.87 95.6601 103.61 94.6801 104.11 93.7301C105.85 90.4301 110.28 89.1501 112.93 92.1901C113.277 92.5834 113.663 92.6301 114.09 92.3301L120.33 87.9901C120.481 87.8851 120.604 87.7453 120.688 87.5831C120.771 87.4209 120.813 87.2413 120.81 87.0601C120.783 80.4334 120.397 73.8101 119.65 67.1901C119.603 66.7968 119.407 66.5168 119.06 66.3501C117.15 65.4201 115.98 64.1301 116.3 61.9401C116.47 60.7401 117.27 60.1201 117.98 59.2401C118.086 59.1053 118.162 58.9496 118.202 58.7837C118.241 58.6179 118.244 58.446 118.21 58.2801C117.31 54.1601 116.11 50.1801 114.61 46.3401C114.39 45.7668 113.973 45.4434 113.36 45.3701L103.17 44.1201C102.73 44.0601 102.36 44.1901 102.06 44.5101C98.06 48.6701 94.74 40.5401 99.95 40.3901C100.357 40.3768 100.717 40.5001 101.03 40.7601C101.79 41.4001 102.56 41.8801 103.55 41.9601C106.443 42.1868 109.323 42.5234 112.19 42.9701C112.763 43.0634 112.913 42.8568 112.64 42.3501C110.3 37.9901 107.54 34.6401 102.39 33.4901C96.7167 32.2301 90.9434 31.8968 85.07 32.4901C85.0644 32.4897 85.0591 32.4877 85.0546 32.4844C85.05 32.4811 85.0465 32.4765 85.0445 32.4713C85.0424 32.4661 85.0418 32.4604 85.0428 32.4549C85.0438 32.4494 85.0463 32.4443 85.05 32.4401C87.2367 30.1001 89.5467 27.6868 91.98 25.2001C92.0577 25.1229 92.1608 25.0767 92.27 25.0701C111.2 24.4701 134.81 35.7801 141.56 54.4401C145.1 64.2301 152.17 68.3301 159.75 74.3201C161.743 75.9001 161.907 77.6501 160.24 79.5701L155.87 84.6101C155.742 84.7568 155.645 84.9274 155.585 85.1119C155.524 85.2964 155.501 85.4911 155.517 85.6842C155.532 85.8773 155.587 86.065 155.677 86.2361C155.767 86.4072 155.89 86.5582 156.04 86.6801L157.93 88.2401C158.23 88.4801 158.397 88.7934 158.43 89.1801C158.577 90.7934 158.013 92.3801 156.74 93.9401C156.641 94.06 156.573 94.2026 156.543 94.3551C156.513 94.5076 156.521 94.6652 156.566 94.8139C156.612 94.9625 156.694 95.0975 156.804 95.2068C156.915 95.3161 157.051 95.3963 157.2 95.4401ZM123.58 45.4401C123.691 45.4629 123.807 45.4471 123.908 45.3953C124.009 45.3435 124.09 45.2588 124.136 45.1552C124.183 45.0516 124.193 44.9352 124.164 44.8252C124.136 44.7153 124.071 44.6182 123.98 44.5501L113.17 37.0801C113.076 37.0163 112.963 36.9864 112.849 36.9956C112.736 37.0047 112.629 37.0522 112.546 37.1303C112.464 37.2084 112.41 37.3124 112.394 37.425C112.379 37.5377 112.402 37.6524 112.46 37.7501L115.84 43.4101C115.874 43.4671 115.919 43.5167 115.972 43.5562C116.025 43.5957 116.086 43.6242 116.15 43.6401L123.58 45.4401ZM121.28 58.6701C124.91 59.7101 125.5 63.9501 122.36 66.0701C122.033 66.2901 121.89 66.5968 121.93 66.9901C122.61 72.8034 122.98 78.6834 123.04 84.6301C123.041 84.7084 123.065 84.7846 123.109 84.8494C123.153 84.9141 123.215 84.9645 123.288 84.9944C123.36 85.0242 123.44 85.0321 123.517 85.0171C123.593 85.0021 123.664 84.9649 123.72 84.9101C128.42 80.3168 132.407 75.0734 135.68 69.1801C136.12 68.3801 136.237 67.5101 136.03 66.5701C134.61 60.2501 132.053 54.7068 128.36 49.9401C127.88 49.3201 127.26 48.8968 126.5 48.6701C123.567 47.7834 120.647 46.9934 117.74 46.3001C117.691 46.2898 117.641 46.2921 117.593 46.3069C117.546 46.3217 117.503 46.3485 117.469 46.3847C117.435 46.4208 117.411 46.4651 117.398 46.5134C117.386 46.5616 117.387 46.6121 117.4 46.6601L120.57 57.9501C120.619 58.1213 120.71 58.2771 120.834 58.4029C120.959 58.5288 121.112 58.6207 121.28 58.6701ZM122.86 111.62C131.44 100.09 137.78 87.4801 136.96 72.9201C136.907 72.0801 136.667 72.0201 136.24 72.7401C132.727 78.6134 128.557 83.6968 123.73 87.9901C123.56 88.1416 123.423 88.3274 123.329 88.5357C123.234 88.7441 123.183 88.9703 123.18 89.2001C123.147 96.8934 122.813 104.28 122.18 111.36C122.1 112.253 122.327 112.34 122.86 111.62ZM114.6 94.9601C115.19 100.77 108.96 104.02 105.01 99.5101C104.895 99.3776 104.743 99.2828 104.574 99.2382C104.404 99.1936 104.225 99.2012 104.06 99.2601C95.12 102.46 85.7834 104.113 76.05 104.22C75.65 104.22 75.3734 104.407 75.22 104.78C74.76 105.92 74.1367 106.913 73.35 107.76C73.05 108.08 73.0634 108.387 73.39 108.68C84.79 118.767 97.7734 124.197 112.34 124.97C112.63 124.986 112.92 124.926 113.181 124.796C113.442 124.666 113.665 124.472 113.83 124.23C115.337 122.01 116.857 119.92 118.39 117.96C119.083 117.073 119.483 116.113 119.59 115.08C120.343 107.693 120.747 99.6034 120.8 90.8101C120.799 90.7839 120.791 90.7584 120.777 90.7363C120.763 90.7141 120.743 90.6961 120.72 90.6839C120.696 90.6718 120.67 90.6659 120.644 90.667C120.618 90.6681 120.592 90.6761 120.57 90.6901L114.82 94.5001C114.653 94.6068 114.58 94.7601 114.6 94.9601Z" fill="#FFF08D"/>
<path d="M123.58 45.4401L116.15 43.6401C116.086 43.6242 116.025 43.5957 115.972 43.5562C115.919 43.5167 115.874 43.467 115.84 43.4101L112.46 37.7501C112.402 37.6524 112.378 37.5377 112.394 37.425C112.41 37.3123 112.463 37.2083 112.546 37.1302C112.629 37.0522 112.736 37.0046 112.849 36.9955C112.963 36.9864 113.076 37.0162 113.17 37.0801L123.98 44.5501C124.071 44.6182 124.136 44.7152 124.164 44.8252C124.193 44.9352 124.183 45.0516 124.136 45.1552C124.09 45.2588 124.009 45.3434 123.908 45.3952C123.807 45.447 123.691 45.4628 123.58 45.4401Z" fill="#324154"/>
<path d="M44.22 79.55C44.15 96.5 56.16 114.11 71.8 120.31C71.9377 120.364 72.0893 120.372 72.2319 120.333C72.3745 120.293 72.5002 120.208 72.59 120.09C74.41 117.683 76.4433 117.36 78.69 119.12C82.26 121.92 78.83 127.65 74.53 125.86C72.83 125.15 72.84 123.48 71.18 122.69C52.9933 114.07 43.1833 99.5834 41.75 79.23C41.7233 78.8567 41.5367 78.6 41.19 78.46C32.32 74.9 34.46 62.06 43.98 62.29C44.4067 62.3034 44.6933 62.11 44.84 61.71C47.28 55.11 50.6867 49.47 55.06 44.79C55.36 44.4634 55.6833 44.4434 56.03 44.73L56.45 45.08C56.97 45.5067 57.0033 45.9667 56.55 46.46C52.4367 50.96 49.27 56.1734 47.05 62.1C46.8833 62.5467 47.0133 62.8734 47.44 63.08C55.23 66.81 52.98 77.58 44.79 78.89C44.6313 78.916 44.4869 78.9966 44.3826 79.1174C44.2782 79.2383 44.2206 79.3915 44.22 79.55Z" fill="#FFF08D"/>
<path d="M122.36 66.07C125.5 63.95 124.91 59.71 121.28 58.67C121.112 58.6206 120.958 58.5287 120.834 58.4029C120.71 58.277 120.619 58.1212 120.57 57.95L117.4 46.66C117.387 46.6121 117.386 46.5615 117.398 46.5133C117.411 46.4651 117.435 46.4207 117.469 46.3846C117.503 46.3484 117.546 46.3217 117.593 46.3069C117.641 46.2921 117.691 46.2897 117.74 46.3C120.647 46.9934 123.567 47.7834 126.5 48.67C127.26 48.8967 127.88 49.32 128.36 49.94C132.053 54.7067 134.61 60.25 136.03 66.57C136.237 67.51 136.12 68.38 135.68 69.18C132.407 75.0734 128.42 80.3167 123.72 84.91C123.664 84.9648 123.593 85.002 123.516 85.017C123.44 85.032 123.36 85.0241 123.288 84.9943C123.215 84.9645 123.153 84.9141 123.109 84.8493C123.065 84.7846 123.041 84.7083 123.04 84.63C122.98 78.6834 122.61 72.8034 121.93 66.99C121.89 66.5967 122.033 66.29 122.36 66.07Z" fill="#324154"/>
<path d="M82.06 76.9301C87.1963 76.9301 91.36 72.7663 91.36 67.6301C91.36 62.4938 87.1963 58.3301 82.06 58.3301C76.9238 58.3301 72.76 62.4938 72.76 67.6301C72.76 72.7663 76.9238 76.9301 82.06 76.9301Z" fill="#FFF08D"/>
<path d="M136.96 72.9199C137.78 87.4799 131.44 100.09 122.86 111.62C122.327 112.34 122.1 112.253 122.18 111.36C122.813 104.28 123.147 96.8932 123.18 89.1999C123.183 88.9701 123.234 88.7439 123.328 88.5356C123.423 88.3272 123.56 88.1414 123.73 87.9899C128.557 83.6966 132.727 78.6132 136.24 72.7399C136.667 72.0199 136.907 72.0799 136.96 72.9199Z" fill="#324154"/>
<path d="M114.6 94.96C114.58 94.76 114.653 94.6066 114.82 94.5L120.57 90.69C120.592 90.6759 120.618 90.668 120.644 90.6669C120.67 90.6658 120.696 90.6716 120.719 90.6838C120.743 90.6959 120.762 90.714 120.777 90.7361C120.791 90.7583 120.799 90.7837 120.8 90.81C120.747 99.6033 120.343 107.693 119.59 115.08C119.483 116.113 119.083 117.073 118.39 117.96C116.857 119.92 115.337 122.01 113.83 124.23C113.665 124.471 113.442 124.666 113.181 124.796C112.92 124.926 112.63 124.985 112.34 124.97C97.7733 124.197 84.7899 118.767 73.3899 108.68C73.0633 108.387 73.0499 108.08 73.3499 107.76C74.1366 106.913 74.7599 105.92 75.2199 104.78C75.3733 104.407 75.65 104.22 76.05 104.22C85.7833 104.113 95.1199 102.46 104.06 99.26C104.225 99.2011 104.404 99.1934 104.574 99.2381C104.743 99.2827 104.895 99.3774 105.01 99.51C108.96 104.02 115.19 100.77 114.6 94.96Z" fill="#324154"/>
</g>
<defs>
<clipPath id="clip0_46_558">
<rect width="200" height="200" rx="100" fill="white"/>
</clipPath>
</defs>
</svg>
