<svg width="200" height="200" viewBox="0 0 200 200" fill="none" xmlns="http://www.w3.org/2000/svg">
<g clip-path="url(#clip0_45_5)">
<path d="M60.94 121.61C37.44 119.74 31.87 87.43 53.74 78.13C59.0333 75.87 64.6333 75.6933 70.54 77.6C70.8213 77.6936 71.1245 77.6987 71.4088 77.6146C71.6931 77.5306 71.9448 77.3614 72.13 77.13L81.84 65.03C81.8852 64.9747 81.9175 64.9101 81.9346 64.8408C81.9517 64.7715 81.9531 64.6992 81.9388 64.6293C81.9244 64.5593 81.8946 64.4935 81.8516 64.4365C81.8085 64.3795 81.7533 64.3329 81.69 64.3C49.28 47.25 13.63 78.08 25.54 112.12C35.92 141.78 75.26 147.96 94.2 122.76C94.3572 122.554 94.4448 122.302 94.4502 122.042C94.4556 121.781 94.3785 121.525 94.23 121.31L84.95 107.77C84.9057 107.706 84.847 107.654 84.7788 107.618C84.7106 107.582 84.6349 107.562 84.5583 107.561C84.4817 107.56 84.4063 107.578 84.3387 107.612C84.2711 107.647 84.2132 107.698 84.17 107.76C82.6366 109.973 81.0466 112.07 79.4 114.05C74.99 119.36 67.79 122.16 60.94 121.61Z" stroke="#9FA2A6" stroke-width="2"/>
<path d="M101.17 82.6899C101.075 82.8356 100.947 82.9561 100.795 83.0408C100.644 83.1255 100.474 83.1719 100.301 83.1759C100.128 83.1798 99.9576 83.1412 99.8039 83.0635C99.6503 82.9857 99.5184 82.8712 99.42 82.7299L92.13 72.3799C91.9983 72.1928 91.825 72.0388 91.6237 71.93C91.4224 71.8211 91.1986 71.7604 90.9699 71.7527C90.7412 71.7449 90.5138 71.7903 90.3056 71.8853C90.0974 71.9802 89.9141 72.1222 89.77 72.2999L81.09 83.0099C80.7502 83.4285 80.5556 83.9458 80.5357 84.4835C80.5159 85.0213 80.6719 85.5501 80.98 85.9899C87.38 95.2366 93.66 104.393 99.82 113.46C105.313 121.547 109.45 126.773 112.23 129.14C122.01 137.48 136.31 140.84 148.68 137.15C185.08 126.29 187.9 76.0799 151.99 62.2599C141.97 58.3999 132.007 58.5699 122.1 62.7699C112.64 66.7699 106.74 74.0899 101.17 82.6899Z" stroke="#AEDAEF" stroke-width="2"/>
<path d="M157.63 110.66C168.31 92.2199 151.1 71.6299 131.05 77.4999C126.59 78.8066 122.907 81.4899 120 85.5499C117.013 89.7233 114.12 93.9233 111.32 98.1499C110.847 98.8633 110.86 99.5699 111.36 100.27C119.06 111.11 124.11 122.67 139.75 121.8C146.88 121.41 154.06 116.84 157.63 110.66Z" stroke="#AEDAEF" stroke-width="2"/>
<path d="M0 0H200V200H0V0ZM60.94 121.61C37.44 119.74 31.87 87.43 53.74 78.13C59.0333 75.87 64.6333 75.6933 70.54 77.6C70.8213 77.6936 71.1245 77.6987 71.4088 77.6147C71.6931 77.5306 71.9448 77.3615 72.13 77.13L81.84 65.03C81.8852 64.9748 81.9176 64.9101 81.9347 64.8408C81.9518 64.7715 81.9532 64.6992 81.9388 64.6293C81.9244 64.5594 81.8946 64.4935 81.8516 64.4365C81.8086 64.3796 81.7534 64.3329 81.69 64.3C49.28 47.25 13.63 78.08 25.54 112.12C35.92 141.78 75.26 147.96 94.2 122.76C94.3572 122.554 94.4448 122.302 94.4502 122.042C94.4556 121.781 94.3785 121.525 94.23 121.31L84.95 107.77C84.9057 107.706 84.847 107.654 84.7788 107.618C84.7106 107.582 84.635 107.562 84.5583 107.561C84.4817 107.56 84.4063 107.578 84.3387 107.612C84.2711 107.647 84.2132 107.698 84.17 107.76C82.6367 109.973 81.0467 112.07 79.4 114.05C74.99 119.36 67.79 122.16 60.94 121.61ZM101.17 82.69C101.075 82.8356 100.947 82.9561 100.795 83.0409C100.644 83.1256 100.474 83.172 100.301 83.1759C100.128 83.1799 99.9576 83.1413 99.8039 83.0635C99.6503 82.9858 99.5184 82.8712 99.42 82.73L92.13 72.38C91.9983 72.1929 91.825 72.0389 91.6237 71.93C91.4224 71.8212 91.1986 71.7605 90.9699 71.7527C90.7412 71.745 90.5138 71.7904 90.3056 71.8853C90.0974 71.9803 89.9141 72.1222 89.77 72.3L81.09 83.01C80.7502 83.4285 80.5556 83.9459 80.5357 84.4836C80.5159 85.0213 80.6719 85.5502 80.98 85.99C87.38 95.2367 93.66 104.393 99.82 113.46C105.313 121.547 109.45 126.773 112.23 129.14C122.01 137.48 136.31 140.84 148.68 137.15C185.08 126.29 187.9 76.08 151.99 62.26C141.97 58.4 132.007 58.57 122.1 62.77C112.64 66.77 106.74 74.09 101.17 82.69Z" fill="white"/>
<path d="M53.74 78.13C31.87 87.43 37.44 119.74 60.94 121.61C67.79 122.16 74.99 119.36 79.4 114.05C81.0466 112.07 82.6366 109.973 84.17 107.76C84.2132 107.698 84.2711 107.647 84.3387 107.612C84.4063 107.578 84.4817 107.56 84.5583 107.561C84.6349 107.562 84.7106 107.582 84.7788 107.618C84.847 107.654 84.9057 107.706 84.95 107.77L94.23 121.31C94.3785 121.525 94.4556 121.781 94.4502 122.042C94.4448 122.302 94.3572 122.554 94.2 122.76C75.26 147.96 35.92 141.78 25.54 112.12C13.63 78.08 49.28 47.25 81.69 64.3C81.7533 64.3329 81.8085 64.3795 81.8516 64.4365C81.8946 64.4935 81.9244 64.5593 81.9388 64.6293C81.9531 64.6992 81.9517 64.7715 81.9346 64.8408C81.9175 64.9101 81.8852 64.9747 81.84 65.03L72.13 77.13C71.9448 77.3614 71.6931 77.5306 71.4088 77.6146C71.1245 77.6987 70.8213 77.6936 70.54 77.6C64.6333 75.6933 59.0333 75.87 53.74 78.13Z" fill="#3E454D"/>
<path d="M101.17 82.6899C106.74 74.0899 112.64 66.7699 122.1 62.7699C132.007 58.5699 141.97 58.3999 151.99 62.2599C187.9 76.0799 185.08 126.29 148.68 137.15C136.31 140.84 122.01 137.48 112.23 129.14C109.45 126.773 105.313 121.547 99.82 113.46C93.66 104.393 87.38 95.2366 80.98 85.9899C80.6719 85.5501 80.5159 85.0213 80.5357 84.4835C80.5556 83.9458 80.7502 83.4285 81.09 83.0099L89.77 72.2999C89.9141 72.1222 90.0974 71.9802 90.3056 71.8853C90.5138 71.7903 90.7412 71.7449 90.9699 71.7527C91.1986 71.7604 91.4224 71.8211 91.6237 71.93C91.825 72.0388 91.9983 72.1928 92.13 72.3799L99.42 82.7299C99.5184 82.8712 99.6503 82.9857 99.8039 83.0635C99.9576 83.1412 100.128 83.1798 100.301 83.1759C100.474 83.1719 100.644 83.1255 100.795 83.0408C100.947 82.9561 101.075 82.8356 101.17 82.6899ZM157.63 110.66C168.31 92.2199 151.1 71.6299 131.05 77.4999C126.59 78.8066 122.907 81.4899 120 85.5499C117.013 89.7233 114.12 93.9233 111.32 98.1499C110.847 98.8633 110.86 99.5699 111.36 100.27C119.06 111.11 124.11 122.67 139.75 121.8C146.88 121.41 154.06 116.84 157.63 110.66Z" fill="#5DB5DF"/>
<path d="M131.05 77.4999C151.1 71.6299 168.31 92.2199 157.63 110.66C154.06 116.84 146.88 121.41 139.75 121.8C124.11 122.67 119.06 111.11 111.36 100.27C110.86 99.5699 110.847 98.8633 111.32 98.1499C114.12 93.9233 117.013 89.7233 120 85.5499C122.907 81.4899 126.59 78.8066 131.05 77.4999Z" fill="white"/>
</g>
<defs>
<clipPath id="clip0_45_5">
<rect width="200" height="200" rx="100" fill="white"/>
</clipPath>
</defs>
</svg>
