<svg width="54" height="54" viewBox="0 0 54 54" fill="none" xmlns="http://www.w3.org/2000/svg">
<path d="M13.0985 26.7675C13.3384 28.1844 13.7347 29.5353 14.2667 30.806C15.9039 23.2543 21.7217 17.162 29.484 15.8471C37.4735 14.4938 45.1842 18.5972 49.1238 25.5445C49.2769 23.9637 49.2261 22.3367 48.9481 20.6949C47.2629 10.7467 35.931 1.94945 27.0033 0C18.6163 5.51585 11.4134 16.8193 13.0985 26.7675Z" fill="#50B848"/>
<path d="M30.9828 44.556C32.1336 43.6952 33.1543 42.7256 34.0416 41.672C26.5761 43.6652 18.499 41.2728 13.7833 34.9683C8.92982 28.4794 9.05785 19.7457 13.4384 13.0676C11.9623 13.6535 10.5381 14.442 9.20483 15.4392C1.12506 21.4827 -1.52444 35.5817 0.819781 44.414C9.55735 49.3552 22.903 50.5994 30.9828 44.556Z" fill="#F97C0B"/>
<path d="M37.4347 18.8672C36.0921 18.3548 34.7271 18.0103 33.3623 17.8237C39.0375 23.0676 41.3332 31.1729 38.5259 38.5282C35.6362 46.0987 28.1868 50.6589 20.2013 50.5267C21.4855 51.461 22.9133 52.2432 24.4688 52.8369C33.8953 56.4349 47.2273 51.1375 53.4388 44.4351C52.9437 34.4092 46.8613 22.4651 37.4347 18.8672Z" fill="#1495D0"/>
</svg>
